<svg height="810" id="vis" viewBox="-5 -5 810 810" width="810" xmlns="http://www.w3.org/2000/svg">
<rect fill="white" height="810" width="810" x="-5" y="-5"/>
<path d="M665,392 L428,465" stroke="lightgray" stroke-width="1"/>
<path d="M679,477 L639,236" stroke="lightgray" stroke-width="1"/>
<path d="M318,246 L561,480" stroke="lightgray" stroke-width="1"/>
<path d="M453,152 L426,314" stroke="lightgray" stroke-width="1"/>
<path d="M768,319 L650,405" stroke="lightgray" stroke-width="1"/>
<path d="M797,384 L641,278" stroke="lightgray" stroke-width="1"/>
<path d="M331,81 L527,473" stroke="lightgray" stroke-width="1"/>
<path d="M697,186 L453,401" stroke="lightgray" stroke-width="1"/>
<path d="M596,287 L619,446" stroke="lightgray" stroke-width="1"/>
<path d="M790,287 L637,303" stroke="lightgray" stroke-width="1"/>
<path d="M382,323 L489,235" stroke="lightgray" stroke-width="1"/>
<path d="M658,430 L635,263" stroke="lightgray" stroke-width="1"/>
<path d="M730,490 L562,435" stroke="lightgray" stroke-width="1"/>
<path d="M462,140 L563,491" stroke="lightgray" stroke-width="1"/>
<path d="M567,237 L794,438" stroke="lightgray" stroke-width="1"/>
<path d="M377,102 L552,402" stroke="lightgray" stroke-width="1"/>
<path d="M767,237 L652,226" stroke="lightgray" stroke-width="1"/>
<path d="M559,150 L483,262" stroke="lightgray" stroke-width="1"/>
<path d="M348,93 L775,291" stroke="lightgray" stroke-width="1"/>
<path d="M712,224 L637,448" stroke="lightgray" stroke-width="1"/>
<path d="M763,239 L640,514" stroke="lightgray" stroke-width="1"/>
<path d="M505,152 L592,256" stroke="lightgray" stroke-width="1"/>
<path d="M626,279 L729,374" stroke="lightgray" stroke-width="1"/>
<path d="M380,377 L434,216" stroke="lightgray" stroke-width="1"/>
<path d="M344,155 L520,346" stroke="lightgray" stroke-width="1"/>
<path d="M454,130 L567,450" stroke="lightgray" stroke-width="1"/>
<path d="M374,114 L424,366" stroke="lightgray" stroke-width="1"/>
<path d="M334,298 L769,498" stroke="lightgray" stroke-width="1"/>
<path d="M710,210 L592,515" stroke="lightgray" stroke-width="1"/>
<path d="M341,88 L790,277" stroke="lightgray" stroke-width="1"/>
<path d="M747,447 L465,490" stroke="lightgray" stroke-width="1"/>
<path d="M727,483 L570,556" stroke="lightgray" stroke-width="1"/>
<path d="M339,216 L704,322" stroke="lightgray" stroke-width="1"/>
<path d="M310,230 L443,207" stroke="lightgray" stroke-width="1"/>
<path d="M476,155 L515,524" stroke="lightgray" stroke-width="1"/>
<path d="M632,348 L677,257" stroke="lightgray" stroke-width="1"/>
<path d="M426,138 L763,395" stroke="lightgray" stroke-width="1"/>
<path d="M558,159 L605,560" stroke="lightgray" stroke-width="1"/>
<path d="M452,160 L671,571" stroke="lightgray" stroke-width="1"/>
<path d="M708,480 L629,381" stroke="lightgray" stroke-width="1"/>
<path d="M792,260 L604,324" stroke="lightgray" stroke-width="1"/>
<path d="M350,272 L443,400" stroke="lightgray" stroke-width="1"/>
<path d="M585,190 L637,508" stroke="lightgray" stroke-width="1"/>
<path d="M786,439 L492,539" stroke="lightgray" stroke-width="1"/>
<path d="M726,465 L529,335" stroke="lightgray" stroke-width="1"/>
<path d="M418,94 L520,586" stroke="lightgray" stroke-width="1"/>
<path d="M617,289 L781,295" stroke="lightgray" stroke-width="1"/>
<path d="M787,347 L758,484" stroke="lightgray" stroke-width="1"/>
<path d="M655,408 L787,570" stroke="lightgray" stroke-width="1"/>
<path d="M597,315 L548,238" stroke="lightgray" stroke-width="1"/>
<path d="M400,400 L380,377" stroke="brown" stroke-width="3"/>
<path d="M380,377 L382,323" stroke="brown" stroke-width="3"/>
<path d="M382,323 L334,298" stroke="brown" stroke-width="3"/>
<path d="M334,298 L350,272" stroke="brown" stroke-width="3"/>
<path d="M350,272 L318,246" stroke="brown" stroke-width="3"/>
<path d="M318,246 L310,230" stroke="brown" stroke-width="3"/>
<path d="M310,230 L339,216" stroke="brown" stroke-width="3"/>
<path d="M339,216 L344,155" stroke="brown" stroke-width="3"/>
<path d="M344,155 L331,81" stroke="brown" stroke-width="3"/>
<path d="M331,81 L341,88" stroke="brown" stroke-width="3"/>
<path d="M341,88 L348,93" stroke="brown" stroke-width="3"/>
<path d="M348,93 L374,114" stroke="brown" stroke-width="3"/>
<path d="M374,114 L377,102" stroke="brown" stroke-width="3"/>
<path d="M377,102 L418,94" stroke="brown" stroke-width="3"/>
<path d="M418,94 L426,138" stroke="brown" stroke-width="3"/>
<path d="M426,138 L454,130" stroke="brown" stroke-width="3"/>
<path d="M454,130 L462,140" stroke="brown" stroke-width="3"/>
<path d="M462,140 L453,152" stroke="brown" stroke-width="3"/>
<path d="M453,152 L452,160" stroke="brown" stroke-width="3"/>
<path d="M452,160 L476,155" stroke="brown" stroke-width="3"/>
<path d="M476,155 L505,152" stroke="brown" stroke-width="3"/>
<path d="M505,152 L559,150" stroke="brown" stroke-width="3"/>
<path d="M559,150 L558,159" stroke="brown" stroke-width="3"/>
<path d="M558,159 L585,190" stroke="brown" stroke-width="3"/>
<path d="M585,190 L567,237" stroke="brown" stroke-width="3"/>
<path d="M567,237 L626,279" stroke="brown" stroke-width="3"/>
<path d="M626,279 L617,289" stroke="brown" stroke-width="3"/>
<path d="M617,289 L596,287" stroke="brown" stroke-width="3"/>
<path d="M596,287 L597,315" stroke="brown" stroke-width="3"/>
<path d="M597,315 L632,348" stroke="brown" stroke-width="3"/>
<path d="M632,348 L665,392" stroke="brown" stroke-width="3"/>
<path d="M665,392 L655,408" stroke="brown" stroke-width="3"/>
<path d="M655,408 L658,430" stroke="brown" stroke-width="3"/>
<path d="M658,430 L679,477" stroke="brown" stroke-width="3"/>
<path d="M679,477 L708,480" stroke="brown" stroke-width="3"/>
<path d="M708,480 L727,483" stroke="brown" stroke-width="3"/>
<path d="M727,483 L730,490" stroke="brown" stroke-width="3"/>
<path d="M730,490 L726,465" stroke="brown" stroke-width="3"/>
<path d="M726,465 L747,447" stroke="brown" stroke-width="3"/>
<path d="M747,447 L786,439" stroke="brown" stroke-width="3"/>
<path d="M786,439 L797,384" stroke="brown" stroke-width="3"/>
<path d="M797,384 L787,347" stroke="brown" stroke-width="3"/>
<path d="M787,347 L768,319" stroke="brown" stroke-width="3"/>
<path d="M768,319 L790,287" stroke="brown" stroke-width="3"/>
<path d="M790,287 L792,260" stroke="brown" stroke-width="3"/>
<path d="M792,260 L767,237" stroke="brown" stroke-width="3"/>
<path d="M767,237 L763,239" stroke="brown" stroke-width="3"/>
<path d="M763,239 L712,224" stroke="brown" stroke-width="3"/>
<path d="M712,224 L710,210" stroke="brown" stroke-width="3"/>
<path d="M710,210 L697,186" stroke="brown" stroke-width="3"/>
<path d="M697,186 L652,226" stroke="brown" stroke-width="3"/>
<path d="M652,226 L639,236" stroke="brown" stroke-width="3"/>
<path d="M639,236 L677,257" stroke="brown" stroke-width="3"/>
<path d="M677,257 L790,277" stroke="brown" stroke-width="3"/>
<path d="M790,277 L781,295" stroke="brown" stroke-width="3"/>
<path d="M781,295 L775,291" stroke="brown" stroke-width="3"/>
<path d="M775,291 L704,322" stroke="brown" stroke-width="3"/>
<path d="M704,322 L729,374" stroke="brown" stroke-width="3"/>
<path d="M729,374 L763,395" stroke="brown" stroke-width="3"/>
<path d="M763,395 L794,438" stroke="brown" stroke-width="3"/>
<path d="M794,438 L758,484" stroke="brown" stroke-width="3"/>
<path d="M758,484 L769,498" stroke="brown" stroke-width="3"/>
<path d="M769,498 L787,570" stroke="brown" stroke-width="3"/>
<path d="M787,570 L671,571" stroke="brown" stroke-width="3"/>
<path d="M671,571 L605,560" stroke="brown" stroke-width="3"/>
<path d="M605,560 L570,556" stroke="brown" stroke-width="3"/>
<path d="M570,556 L592,515" stroke="brown" stroke-width="3"/>
<path d="M592,515 L640,514" stroke="brown" stroke-width="3"/>
<path d="M640,514 L637,508" stroke="brown" stroke-width="3"/>
<path d="M637,508 L637,448" stroke="brown" stroke-width="3"/>
<path d="M637,448 L619,446" stroke="brown" stroke-width="3"/>
<path d="M619,446 L650,405" stroke="brown" stroke-width="3"/>
<path d="M650,405 L629,381" stroke="brown" stroke-width="3"/>
<path d="M629,381 L604,324" stroke="brown" stroke-width="3"/>
<path d="M604,324 L637,303" stroke="brown" stroke-width="3"/>
<path d="M637,303 L641,278" stroke="brown" stroke-width="3"/>
<path d="M641,278 L635,263" stroke="brown" stroke-width="3"/>
<path d="M635,263 L592,256" stroke="brown" stroke-width="3"/>
<path d="M592,256 L548,238" stroke="brown" stroke-width="3"/>
<path d="M548,238 L489,235" stroke="brown" stroke-width="3"/>
<path d="M489,235 L483,262" stroke="brown" stroke-width="3"/>
<path d="M483,262 L443,207" stroke="brown" stroke-width="3"/>
<path d="M443,207 L434,216" stroke="brown" stroke-width="3"/>
<path d="M434,216 L426,314" stroke="brown" stroke-width="3"/>
<path d="M426,314 L520,346" stroke="brown" stroke-width="3"/>
<path d="M520,346 L529,335" stroke="brown" stroke-width="3"/>
<path d="M529,335 L552,402" stroke="brown" stroke-width="3"/>
<path d="M552,402 L562,435" stroke="brown" stroke-width="3"/>
<path d="M562,435 L567,450" stroke="brown" stroke-width="3"/>
<path d="M567,450 L563,491" stroke="brown" stroke-width="3"/>
<path d="M563,491 L561,480" stroke="brown" stroke-width="3"/>
<path d="M561,480 L527,473" stroke="brown" stroke-width="3"/>
<path d="M527,473 L515,524" stroke="brown" stroke-width="3"/>
<path d="M515,524 L520,586" stroke="brown" stroke-width="3"/>
<path d="M520,586 L492,539" stroke="brown" stroke-width="3"/>
<path d="M492,539 L465,490" stroke="brown" stroke-width="3"/>
<path d="M465,490 L428,465" stroke="brown" stroke-width="3"/>
<path d="M428,465 L453,401" stroke="brown" stroke-width="3"/>
<path d="M453,401 L443,400" stroke="brown" stroke-width="3"/>
<path d="M443,400 L424,366" stroke="brown" stroke-width="3"/>
<path d="M424,366 L400,400" stroke="brown" stroke-width="3"/>
<circle cx="665" cy="392" fill="red" r="6"/>
<circle cx="428" cy="465" fill="green" r="6"/>
<circle cx="679" cy="477" fill="red" r="6"/>
<circle cx="639" cy="236" fill="green" r="6"/>
<circle cx="318" cy="246" fill="red" r="6"/>
<circle cx="561" cy="480" fill="green" r="6"/>
<circle cx="453" cy="152" fill="red" r="6"/>
<circle cx="426" cy="314" fill="green" r="6"/>
<circle cx="768" cy="319" fill="red" r="6"/>
<circle cx="650" cy="405" fill="green" r="6"/>
<circle cx="797" cy="384" fill="red" r="6"/>
<circle cx="641" cy="278" fill="green" r="6"/>
<circle cx="331" cy="81" fill="red" r="6"/>
<circle cx="527" cy="473" fill="green" r="6"/>
<circle cx="697" cy="186" fill="red" r="6"/>
<circle cx="453" cy="401" fill="green" r="6"/>
<circle cx="596" cy="287" fill="red" r="6"/>
<circle cx="619" cy="446" fill="green" r="6"/>
<circle cx="790" cy="287" fill="red" r="6"/>
<circle cx="637" cy="303" fill="green" r="6"/>
<circle cx="382" cy="323" fill="red" r="6"/>
<circle cx="489" cy="235" fill="green" r="6"/>
<circle cx="658" cy="430" fill="red" r="6"/>
<circle cx="635" cy="263" fill="green" r="6"/>
<circle cx="730" cy="490" fill="red" r="6"/>
<circle cx="562" cy="435" fill="green" r="6"/>
<circle cx="462" cy="140" fill="red" r="6"/>
<circle cx="563" cy="491" fill="green" r="6"/>
<circle cx="567" cy="237" fill="red" r="6"/>
<circle cx="794" cy="438" fill="green" r="6"/>
<circle cx="377" cy="102" fill="red" r="6"/>
<circle cx="552" cy="402" fill="green" r="6"/>
<circle cx="767" cy="237" fill="red" r="6"/>
<circle cx="652" cy="226" fill="green" r="6"/>
<circle cx="559" cy="150" fill="red" r="6"/>
<circle cx="483" cy="262" fill="green" r="6"/>
<circle cx="348" cy="93" fill="red" r="6"/>
<circle cx="775" cy="291" fill="green" r="6"/>
<circle cx="712" cy="224" fill="red" r="6"/>
<circle cx="637" cy="448" fill="green" r="6"/>
<circle cx="763" cy="239" fill="red" r="6"/>
<circle cx="640" cy="514" fill="green" r="6"/>
<circle cx="505" cy="152" fill="red" r="6"/>
<circle cx="592" cy="256" fill="green" r="6"/>
<circle cx="626" cy="279" fill="red" r="6"/>
<circle cx="729" cy="374" fill="green" r="6"/>
<circle cx="380" cy="377" fill="red" r="6"/>
<circle cx="434" cy="216" fill="green" r="6"/>
<circle cx="344" cy="155" fill="red" r="6"/>
<circle cx="520" cy="346" fill="green" r="6"/>
<circle cx="454" cy="130" fill="red" r="6"/>
<circle cx="567" cy="450" fill="green" r="6"/>
<circle cx="374" cy="114" fill="red" r="6"/>
<circle cx="424" cy="366" fill="green" r="6"/>
<circle cx="334" cy="298" fill="red" r="6"/>
<circle cx="769" cy="498" fill="green" r="6"/>
<circle cx="710" cy="210" fill="red" r="6"/>
<circle cx="592" cy="515" fill="green" r="6"/>
<circle cx="341" cy="88" fill="red" r="6"/>
<circle cx="790" cy="277" fill="green" r="6"/>
<circle cx="747" cy="447" fill="red" r="6"/>
<circle cx="465" cy="490" fill="green" r="6"/>
<circle cx="727" cy="483" fill="red" r="6"/>
<circle cx="570" cy="556" fill="green" r="6"/>
<circle cx="339" cy="216" fill="red" r="6"/>
<circle cx="704" cy="322" fill="green" r="6"/>
<circle cx="310" cy="230" fill="red" r="6"/>
<circle cx="443" cy="207" fill="green" r="6"/>
<circle cx="476" cy="155" fill="red" r="6"/>
<circle cx="515" cy="524" fill="green" r="6"/>
<circle cx="632" cy="348" fill="red" r="6"/>
<circle cx="677" cy="257" fill="green" r="6"/>
<circle cx="426" cy="138" fill="red" r="6"/>
<circle cx="763" cy="395" fill="green" r="6"/>
<circle cx="558" cy="159" fill="red" r="6"/>
<circle cx="605" cy="560" fill="green" r="6"/>
<circle cx="452" cy="160" fill="red" r="6"/>
<circle cx="671" cy="571" fill="green" r="6"/>
<circle cx="708" cy="480" fill="red" r="6"/>
<circle cx="629" cy="381" fill="green" r="6"/>
<circle cx="792" cy="260" fill="red" r="6"/>
<circle cx="604" cy="324" fill="green" r="6"/>
<circle cx="350" cy="272" fill="red" r="6"/>
<circle cx="443" cy="400" fill="green" r="6"/>
<circle cx="585" cy="190" fill="red" r="6"/>
<circle cx="637" cy="508" fill="green" r="6"/>
<circle cx="786" cy="439" fill="red" r="6"/>
<circle cx="492" cy="539" fill="green" r="6"/>
<circle cx="726" cy="465" fill="red" r="6"/>
<circle cx="529" cy="335" fill="green" r="6"/>
<circle cx="418" cy="94" fill="red" r="6"/>
<circle cx="520" cy="586" fill="green" r="6"/>
<circle cx="617" cy="289" fill="red" r="6"/>
<circle cx="781" cy="295" fill="green" r="6"/>
<circle cx="787" cy="347" fill="red" r="6"/>
<circle cx="758" cy="484" fill="green" r="6"/>
<circle cx="655" cy="408" fill="red" r="6"/>
<circle cx="787" cy="570" fill="green" r="6"/>
<circle cx="597" cy="315" fill="red" r="6"/>
<circle cx="548" cy="238" fill="green" r="6"/>
<circle cx="400" cy="400" fill="gray" r="6"/>
</svg>