<svg viewBox="-100 -100 10200 10200" xmlns="http://www.w3.org/2000/svg">
<path d="M0,0 l10000,0 l0,10000 l-10000,0 z" fill="white"/>
<path d="M1,7381 l499,0 l0,619 l-499,0 z" fill="#fe00ff" stroke="black" stroke-width="5"/>
<path d="M694,6744 l1880,0 l0,106 l-1880,0 z" fill="#fe00ff" stroke="black" stroke-width="5"/>
<path d="M7621,4500 l2379,0 l0,459 l-2379,0 z" fill="#fc00ff" stroke="black" stroke-width="5"/>
<path d="M1605,787 l116,0 l0,1782 l-116,0 z" fill="#ff00fe" stroke="black" stroke-width="5"/>
<path d="M1653,2922 l2061,0 l0,113 l-2061,0 z" fill="#fe00ff" stroke="black" stroke-width="5"/>
<path d="M9339,5838 l661,0 l0,1751 l-661,0 z" fill="#9f00ff" stroke="black" stroke-width="5"/>
<path d="M2275,8356 l28,0 l0,19 l-28,0 z" fill="#ff00fe" stroke="black" stroke-width="5"/>
<path d="M1699,3928 l1042,0 l0,14 l-1042,0 z" fill="#ff00fe" stroke="black" stroke-width="5"/>
<path d="M1815,1409 l716,0 l0,1225 l-716,0 z" fill="#ff00fe" stroke="black" stroke-width="5"/>
<path d="M4962,6577 l1085,0 l0,598 l-1085,0 z" fill="#fe00ff" stroke="black" stroke-width="5"/>
<path d="M3735,4207 l918,0 l0,475 l-918,0 z" fill="#fe00ff" stroke="black" stroke-width="5"/>
<path d="M0,344 l2531,0 l0,443 l-2531,0 z" fill="#e000ff" stroke="black" stroke-width="5"/>
<path d="M1478,2785 l2230,0 l0,137 l-2230,0 z" fill="#ff00fe" stroke="black" stroke-width="5"/>
<path d="M6119,5952 l1296,0 l0,1306 l-1296,0 z" fill="#ee00ff" stroke="black" stroke-width="5"/>
<path d="M4156,5536 l1568,0 l0,313 l-1568,0 z" fill="#fd00ff" stroke="black" stroke-width="5"/>
<path d="M260,2310 l1218,0 l0,1005 l-1218,0 z" fill="#fe00ff" stroke="black" stroke-width="5"/>
<path d="M4631,1583 l252,0 l0,1513 l-252,0 z" fill="#fa00ff" stroke="black" stroke-width="5"/>
<path d="M5070,513 l264,0 l0,3503 l-264,0 z" fill="#af00ff" stroke="black" stroke-width="5"/>
<path d="M7909,4959 l2091,0 l0,879 l-2091,0 z" fill="#f200ff" stroke="black" stroke-width="5"/>
<path d="M4975,8798 l1384,0 l0,609 l-1384,0 z" fill="#fe00ff" stroke="black" stroke-width="5"/>
<path d="M3735,3243 l727,0 l0,579 l-727,0 z" fill="#d800ff" stroke="black" stroke-width="5"/>
<path d="M259,3315 l2459,0 l0,258 l-2459,0 z" fill="#ff00fe" stroke="black" stroke-width="5"/>
<path d="M5070,0 l1124,0 l0,513 l-1124,0 z" fill="#fb00ff" stroke="black" stroke-width="5"/>
<path d="M7640,7739 l1631,0 l0,736 l-1631,0 z" fill="#f100ff" stroke="black" stroke-width="5"/>
<path d="M4651,4907 l1160,0 l0,629 l-1160,0 z" fill="#f600ff" stroke="black" stroke-width="5"/>
<path d="M1749,4514 l251,0 l0,751 l-251,0 z" fill="#fe00ff" stroke="black" stroke-width="5"/>
<path d="M2531,344 l419,0 l0,2289 l-419,0 z" fill="#fe00ff" stroke="black" stroke-width="5"/>
<path d="M3712,8662 l1216,0 l0,428 l-1216,0 z" fill="#ff00fe" stroke="black" stroke-width="5"/>
<path d="M0,9090 l4928,0 l0,108 l-4928,0 z" fill="#ff00fe" stroke="black" stroke-width="5"/>
<path d="M0,9 l80,0 l0,335 l-80,0 z" fill="#ff00fe" stroke="black" stroke-width="5"/>
<path d="M1300,5265 l1333,0 l0,481 l-1333,0 z" fill="#fe00ff" stroke="black" stroke-width="5"/>
<path d="M7740,9083 l470,0 l0,35 l-470,0 z" fill="#ff00fe" stroke="black" stroke-width="5"/>
<path d="M3954,2620 l30,0 l0,623 l-30,0 z" fill="#ff00fe" stroke="black" stroke-width="5"/>
<path d="M1749,3942 l992,0 l0,572 l-992,0 z" fill="#f500ff" stroke="black" stroke-width="5"/>
<path d="M2335,9397 l1215,0 l0,509 l-1215,0 z" fill="#ff00fe" stroke="black" stroke-width="5"/>
<path d="M3147,5476 l1009,0 l0,1101 l-1009,0 z" fill="#6b00ff" stroke="black" stroke-width="5"/>
<path d="M8656,3242 l293,0 l0,309 l-293,0 z" fill="#ff00fe" stroke="black" stroke-width="5"/>
<path d="M6275,3024 l1346,0 l0,1804 l-1346,0 z" fill="#fe00ff" stroke="black" stroke-width="5"/>
<path d="M4462,3243 l191,0 l0,964 l-191,0 z" fill="#fa00ff" stroke="black" stroke-width="5"/>
<path d="M4883,0 l187,0 l0,4016 l-187,0 z" fill="#c400ff" stroke="black" stroke-width="5"/>
<path d="M754,6850 l3912,0 l0,516 l-3912,0 z" fill="#ac00ff" stroke="black" stroke-width="5"/>
<path d="M500,7381 l2588,0 l0,256 l-2588,0 z" fill="#6900ff" stroke="black" stroke-width="5"/>
<path d="M4653,3096 l230,0 l0,1811 l-230,0 z" fill="#8600ff" stroke="black" stroke-width="5"/>
<path d="M2633,4715 l514,0 l0,1334 l-514,0 z" fill="#ef00ff" stroke="black" stroke-width="5"/>
<path d="M7415,6187 l1353,0 l0,32 l-1353,0 z" fill="#ff00fe" stroke="black" stroke-width="5"/>
<path d="M9271,7589 l355,0 l0,2411 l-355,0 z" fill="#b300ff" stroke="black" stroke-width="5"/>
<path d="M5375,2299 l132,0 l0,2608 l-132,0 z" fill="#fe00ff" stroke="black" stroke-width="5"/>
<path d="M4975,7175 l683,0 l0,1623 l-683,0 z" fill="#fe00ff" stroke="black" stroke-width="5"/>
<path d="M6718,7587 l378,0 l0,2413 l-378,0 z" fill="#ef00ff" stroke="black" stroke-width="5"/>
<path d="M7415,6317 l1924,0 l0,519 l-1924,0 z" fill="#e300ff" stroke="black" stroke-width="5"/>
<path d="M7580,1264 l146,0 l0,377 l-146,0 z" fill="#ff00fe" stroke="black" stroke-width="5"/>
<path d="M706,1054 l345,0 l0,819 l-345,0 z" fill="#ff00fe" stroke="black" stroke-width="5"/>
<path d="M3553,9407 l2806,0 l0,33 l-2806,0 z" fill="#fe00ff" stroke="black" stroke-width="5"/>
<path d="M7415,6836 l1924,0 l0,422 l-1924,0 z" fill="#ef00ff" stroke="black" stroke-width="5"/>
<path d="M9493,3206 l368,0 l0,521 l-368,0 z" fill="#fe00ff" stroke="black" stroke-width="5"/>
<path d="M290,4159 l338,0 l0,804 l-338,0 z" fill="#ff00fe" stroke="black" stroke-width="5"/>
<path d="M8335,3727 l1594,0 l0,773 l-1594,0 z" fill="#fe00ff" stroke="black" stroke-width="5"/>
<path d="M6969,660 l611,0 l0,1008 l-611,0 z" fill="#fe00ff" stroke="black" stroke-width="5"/>
<path d="M7834,191 l440,0 l0,1743 l-440,0 z" fill="#ff00fe" stroke="black" stroke-width="5"/>
<path d="M1275,8559 l1266,0 l0,531 l-1266,0 z" fill="#fe00ff" stroke="black" stroke-width="5"/>
<path d="M1195,787 l336,0 l0,688 l-336,0 z" fill="#ff00fe" stroke="black" stroke-width="5"/>
<path d="M7640,7694 l1083,0 l0,45 l-1083,0 z" fill="#ff00fe" stroke="black" stroke-width="5"/>
<path d="M3205,2710 l10,0 l0,37 l-10,0 z" fill="#fe00ff" stroke="black" stroke-width="5"/>
<path d="M7097,8508 l1113,0 l0,575 l-1113,0 z" fill="#f600ff" stroke="black" stroke-width="5"/>
<path d="M6691,7258 l2127,0 l0,329 l-2127,0 z" fill="#f600ff" stroke="black" stroke-width="5"/>
<path d="M8274,33 l1560,0 l0,540 l-1560,0 z" fill="#ff00fe" stroke="black" stroke-width="5"/>
<path d="M3147,4715 l1504,0 l0,761 l-1504,0 z" fill="#e200ff" stroke="black" stroke-width="5"/>
<path d="M1051,1084 l144,0 l0,789 l-144,0 z" fill="#ff00fe" stroke="black" stroke-width="5"/>
<path d="M1478,2634 l1404,0 l0,97 l-1404,0 z" fill="#ff00fe" stroke="black" stroke-width="5"/>
<path d="M5507,3226 l768,0 l0,422 l-768,0 z" fill="#ff00fe" stroke="black" stroke-width="5"/>
<path d="M4156,6269 l1891,0 l0,308 l-1891,0 z" fill="#fa00ff" stroke="black" stroke-width="5"/>
<path d="M3735,3822 l727,0 l0,382 l-727,0 z" fill="#ff00fe" stroke="black" stroke-width="5"/>
<path d="M8235,7611 l583,0 l0,64 l-583,0 z" fill="#ff00fe" stroke="black" stroke-width="5"/>
<path d="M4666,6851 l262,0 l0,1427 l-262,0 z" fill="#ff00fe" stroke="black" stroke-width="5"/>
<path d="M1201,8572 l74,0 l0,480 l-74,0 z" fill="#ff00ff" stroke="black" stroke-width="5"/>
<path d="M0,9198 l4928,0 l0,190 l-4928,0 z" fill="#ff00fe" stroke="black" stroke-width="5"/>
<path d="M0,2357 l259,0 l0,4715 l-259,0 z" fill="#ff00fe" stroke="black" stroke-width="5"/>
<path d="M67,7366 l4599,0 l0,15 l-4599,0 z" fill="#ff00fe" stroke="black" stroke-width="5"/>
<path d="M4156,5849 l4161,0 l0,50 l-4161,0 z" fill="#fe00ff" stroke="black" stroke-width="5"/>
<path d="M9102,1695 l828,0 l0,1303 l-828,0 z" fill="#ff00fe" stroke="black" stroke-width="5"/>
<path d="M1395,7637 l1412,0 l0,680 l-1412,0 z" fill="#ff00fe" stroke="black" stroke-width="5"/>
<path d="M5507,3648 l768,0 l0,1177 l-768,0 z" fill="#fe00ff" stroke="black" stroke-width="5"/>
<path d="M0,7072 l754,0 l0,279 l-754,0 z" fill="#fe00ff" stroke="black" stroke-width="5"/>
<path d="M939,9956 l5420,0 l0,44 l-5420,0 z" fill="#ff00fe" stroke="black" stroke-width="5"/>
<path d="M6944,660 l25,0 l0,938 l-25,0 z" fill="#ff00fe" stroke="black" stroke-width="5"/>
<path d="M259,4963 l435,0 l0,2109 l-435,0 z" fill="#fe00ff" stroke="black" stroke-width="5"/>
<path d="M0,787 l608,0 l0,1523 l-608,0 z" fill="#fe00ff" stroke="black" stroke-width="5"/>
<path d="M6047,5899 l72,0 l0,1225 l-72,0 z" fill="#ff00fe" stroke="black" stroke-width="5"/>
<path d="M950,3942 l799,0 l0,1157 l-799,0 z" fill="#ff00fe" stroke="black" stroke-width="5"/>
<path d="M673,1873 l543,0 l0,371 l-543,0 z" fill="#ff00fe" stroke="black" stroke-width="5"/>
<path d="M7108,2334 l927,0 l0,433 l-927,0 z" fill="#ff00fe" stroke="black" stroke-width="5"/>
<path d="M7946,1934 l1156,0 l0,400 l-1156,0 z" fill="#ff00fe" stroke="black" stroke-width="5"/>
<path d="M4156,5899 l1891,0 l0,370 l-1891,0 z" fill="#9300ff" stroke="black" stroke-width="5"/>
<path d="M6194,0 l750,0 l0,2778 l-750,0 z" fill="#fd00ff" stroke="black" stroke-width="5"/>
<path d="M8210,8475 l496,0 l0,1525 l-496,0 z" fill="#d000ff" stroke="black" stroke-width="5"/>
<path d="M6944,0 l890,0 l0,660 l-890,0 z" fill="#fd00ff" stroke="black" stroke-width="5"/>
<path d="M7778,3332 l557,0 l0,1168 l-557,0 z" fill="#ff00fe" stroke="black" stroke-width="5"/>
<path d="M2038,4537 l47,0 l0,99 l-47,0 z" fill="#ff00fe" stroke="black" stroke-width="5"/>
<path d="M8274,714 l1580,0 l0,191 l-1580,0 z" fill="#ff00fe" stroke="black" stroke-width="5"/>
<path d="M3985,1578 l646,0 l0,1665 l-646,0 z" fill="#cc00ff" stroke="black" stroke-width="5"/>
<path d="M5811,5290 l1823,0 l0,40 l-1823,0 z" fill="#fe00ff" stroke="black" stroke-width="5"/>
<path d="M280,3574 l2461,0 l0,354 l-2461,0 z" fill="#ff00fe" stroke="black" stroke-width="5"/>
<path d="M1906,1238 l625,0 l0,171 l-625,0 z" fill="#ff00fe" stroke="black" stroke-width="5"/>
<path d="M7634,5290 l118,0 l0,558 l-118,0 z" fill="#ff00fe" stroke="black" stroke-width="5"/>
<path d="M2574,6049 l525,0 l0,528 l-525,0 z" fill="#ff00fe" stroke="black" stroke-width="5"/>
<path d="M9626,7589 l374,0 l0,2411 l-374,0 z" fill="#5f00ff" stroke="black" stroke-width="5"/>
<path d="M608,787 l17,0 l0,955 l-17,0 z" fill="#fe00ff" stroke="black" stroke-width="5"/>
<path d="M840,3928 l1,0 l0,875 l-1,0 z" fill="#ff00ff" stroke="black" stroke-width="5"/>
<path d="M4014,9440 l2345,0 l0,457 l-2345,0 z" fill="#fe00ff" stroke="black" stroke-width="5"/>
<path d="M3220,7927 l450,0 l0,351 l-450,0 z" fill="#ff00fe" stroke="black" stroke-width="5"/>
<path d="M694,5746 l1880,0 l0,998 l-1880,0 z" fill="#fa00ff" stroke="black" stroke-width="5"/>
<path d="M5913,7863 l446,0 l0,280 l-446,0 z" fill="#ff00fe" stroke="black" stroke-width="5"/>
<path d="M2741,3035 l973,0 l0,1647 l-973,0 z" fill="#f500ff" stroke="black" stroke-width="5"/>
<path d="M4928,7175 l47,0 l0,2228 l-47,0 z" fill="#fe00ff" stroke="black" stroke-width="5"/>
<path d="M2950,811 l1933,0 l0,767 l-1933,0 z" fill="#f700ff" stroke="black" stroke-width="5"/>
<path d="M5553,2778 l3396,0 l0,246 l-3396,0 z" fill="#fe00ff" stroke="black" stroke-width="5"/>
<path d="M5811,5330 l1823,0 l0,360 l-1823,0 z" fill="#f700ff" stroke="black" stroke-width="5"/>
<path d="M8949,2495 l142,0 l0,942 l-142,0 z" fill="#ff00fe" stroke="black" stroke-width="5"/>
<path d="M6359,7863 l359,0 l0,2137 l-359,0 z" fill="#f000ff" stroke="black" stroke-width="5"/>
<path d="M2650,160 l302,0 l0,184 l-302,0 z" fill="#fe00ff" stroke="black" stroke-width="5"/>
<path d="M2574,6577 l2388,0 l0,273 l-2388,0 z" fill="#f500ff" stroke="black" stroke-width="5"/>
<path d="M8818,7258 l453,0 l0,481 l-453,0 z" fill="#fe00ff" stroke="black" stroke-width="5"/>
<path d="M3714,2573 l21,0 l0,1973 l-21,0 z" fill="#ff00fe" stroke="black" stroke-width="5"/>
<path d="M8177,6285 l1162,0 l0,32 l-1162,0 z" fill="#fe00ff" stroke="black" stroke-width="5"/>
<path d="M3088,7381 l1332,0 l0,282 l-1332,0 z" fill="#ff00fe" stroke="black" stroke-width="5"/>
<path d="M2038,4715 l595,0 l0,383 l-595,0 z" fill="#ff00fe" stroke="black" stroke-width="5"/>
<path d="M7640,7587 l490,0 l0,89 l-490,0 z" fill="#ff00fe" stroke="black" stroke-width="5"/>
<path d="M2169,4682 l2484,0 l0,33 l-2484,0 z" fill="#ff00fe" stroke="black" stroke-width="5"/>
<path d="M3573,8278 l1306,0 l0,266 l-1306,0 z" fill="#ff00fe" stroke="black" stroke-width="5"/>
<path d="M7836,9247 l374,0 l0,753 l-374,0 z" fill="#ff00fe" stroke="black" stroke-width="5"/>
<path d="M5658,7258 l1033,0 l0,605 l-1033,0 z" fill="#fd00ff" stroke="black" stroke-width="5"/>
<path d="M2952,0 l1931,0 l0,811 l-1931,0 z" fill="#f600ff" stroke="black" stroke-width="5"/>
<path d="M8706,8475 l565,0 l0,1525 l-565,0 z" fill="#b300ff" stroke="black" stroke-width="5"/>
<path d="M4883,4016 l451,0 l0,891 l-451,0 z" fill="#f600ff" stroke="black" stroke-width="5"/>
<path d="M7096,7587 l544,0 l0,921 l-544,0 z" fill="#e400ff" stroke="black" stroke-width="5"/>
<path d="M9930,0 l70,0 l0,4500 l-70,0 z" fill="#fe00ff" stroke="black" stroke-width="5"/>
<path d="M5375,513 l407,0 l0,1786 l-407,0 z" fill="#ff00fe" stroke="black" stroke-width="5"/>
<path d="M5724,5690 l1231,0 l0,97 l-1231,0 z" fill="#fe00ff" stroke="black" stroke-width="5"/>
<path d="M0,9388 l2335,0 l0,544 l-2335,0 z" fill="#ff00fe" stroke="black" stroke-width="5"/>
<path d="M80,0 l2570,0 l0,344 l-2570,0 z" fill="#ee00ff" stroke="black" stroke-width="5"/>
<path d="M8630,1002 l1091,0 l0,693 l-1091,0 z" fill="#ff00fe" stroke="black" stroke-width="5"/>
<path d="M8035,2345 l1002,0 l0,150 l-1002,0 z" fill="#ff00fe" stroke="black" stroke-width="5"/>
<path d="M5811,4828 l1810,0 l0,174 l-1810,0 z" fill="#fe00ff" stroke="black" stroke-width="5"/>
<path d="M5334,515 l41,0 l0,4392 l-41,0 z" fill="#ff00fe" stroke="black" stroke-width="5"/>
<path d="M6264,5900 l3075,0 l0,52 l-3075,0 z" fill="#ff00fe" stroke="black" stroke-width="5"/>
<path d="M5811,5002 l2098,0 l0,288 l-2098,0 z" fill="#f200ff" stroke="black" stroke-width="5"/>
<path d="M7481,5952 l1858,0 l0,82 l-1858,0 z" fill="#ff00fe" stroke="black" stroke-width="5"/>
<path d="M5809,611 l380,0 l0,2167 l-380,0 z" fill="#ff00fe" stroke="black" stroke-width="5"/>
<path d="M0,8000 l1201,0 l0,1023 l-1201,0 z" fill="#ff00fe" stroke="black" stroke-width="5"/>
<path d="M3623,1721 l362,0 l0,143 l-362,0 z" fill="#ff00fe" stroke="black" stroke-width="5"/>
<path d="M882,5375 l418,0 l0,253 l-418,0 z" fill="#fe00ff" stroke="black" stroke-width="5"/>
<path d="M468,7430 l60,0 l0,60 l-60,0 z" fill="green"/>
<path d="M498,7460 l-247.5,230.5" stroke="black" stroke-width="5"/>
<path d="M1789,6740 l60,0 l0,60 l-60,0 z" fill="green"/>
<path d="M1819,6770 l-185,27" stroke="black" stroke-width="5"/>
<path d="M9541,4860 l60,0 l0,60 l-60,0 z" fill="green"/>
<path d="M9571,4890 l-760.5,-160.5" stroke="black" stroke-width="5"/>
<path d="M1690,1535 l60,0 l0,60 l-60,0 z" fill="green"/>
<path d="M1720,1565 l-57,113" stroke="black" stroke-width="5"/>
<path d="M2690,2960 l60,0 l0,60 l-60,0 z" fill="green"/>
<path d="M2720,2990 l-36.5,-11.5" stroke="black" stroke-width="5"/>
<path d="M9512,6858 l60,0 l0,60 l-60,0 z" fill="green"/>
<path d="M9542,6888 l127.5,-174.5" stroke="black" stroke-width="5"/>
<path d="M2272,8326 l60,0 l0,60 l-60,0 z" fill="green"/>
<path d="M2302,8356 l-13,9.5" stroke="black" stroke-width="5"/>
<path d="M2095,3905 l60,0 l0,60 l-60,0 z" fill="green"/>
<path d="M2125,3935 l95,0" stroke="black" stroke-width="5"/>
<path d="M2348,1616 l60,0 l0,60 l-60,0 z" fill="green"/>
<path d="M2378,1646 l-205,375.5" stroke="black" stroke-width="5"/>
<path d="M4932,6858 l60,0 l0,60 l-60,0 z" fill="green"/>
<path d="M4962,6888 l542.5,-12" stroke="black" stroke-width="5"/>
<path d="M4622,4401 l60,0 l0,60 l-60,0 z" fill="green"/>
<path d="M4652,4431 l-458,13.5" stroke="black" stroke-width="5"/>
<path d="M780,617 l60,0 l0,60 l-60,0 z" fill="green"/>
<path d="M810,647 l455.5,-81.5" stroke="black" stroke-width="5"/>
<path d="M2014,2853 l60,0 l0,60 l-60,0 z" fill="green"/>
<path d="M2044,2883 l549,-29.5" stroke="black" stroke-width="5"/>
<path d="M6378,7099 l60,0 l0,60 l-60,0 z" fill="green"/>
<path d="M6408,7129 l359,-524" stroke="black" stroke-width="5"/>
<path d="M4130,5693 l60,0 l0,60 l-60,0 z" fill="green"/>
<path d="M4160,5723 l780,-30.5" stroke="black" stroke-width="5"/>
<path d="M253,2489 l60,0 l0,60 l-60,0 z" fill="green"/>
<path d="M283,2519 l586,293.5" stroke="black" stroke-width="5"/>
<path d="M4742,3065 l60,0 l0,60 l-60,0 z" fill="green"/>
<path d="M4772,3095 l-15,-755.5" stroke="black" stroke-width="5"/>
<path d="M5069,3403 l60,0 l0,60 l-60,0 z" fill="green"/>
<path d="M5099,3433 l103,-1168.5" stroke="black" stroke-width="5"/>
<path d="M9556,5580 l60,0 l0,60 l-60,0 z" fill="green"/>
<path d="M9586,5610 l-631.5,-211.5" stroke="black" stroke-width="5"/>
<path d="M5200,9172 l60,0 l0,60 l-60,0 z" fill="green"/>
<path d="M5230,9202 l437,-99.5" stroke="black" stroke-width="5"/>
<path d="M4431,3402 l60,0 l0,60 l-60,0 z" fill="green"/>
<path d="M4461,3432 l-362.5,100.5" stroke="black" stroke-width="5"/>
<path d="M975,3395 l60,0 l0,60 l-60,0 z" fill="green"/>
<path d="M1005,3425 l483.5,19" stroke="black" stroke-width="5"/>
<path d="M5040,349 l60,0 l0,60 l-60,0 z" fill="green"/>
<path d="M5070,379 l562,-122.5" stroke="black" stroke-width="5"/>
<path d="M9239,8012 l60,0 l0,60 l-60,0 z" fill="green"/>
<path d="M9269,8042 l-813.5,65" stroke="black" stroke-width="5"/>
<path d="M4642,5045 l60,0 l0,60 l-60,0 z" fill="green"/>
<path d="M4672,5075 l559,146.5" stroke="black" stroke-width="5"/>
<path d="M1941,4484 l60,0 l0,60 l-60,0 z" fill="green"/>
<path d="M1971,4514 l-96.5,375.5" stroke="black" stroke-width="5"/>
<path d="M2621,614 l60,0 l0,60 l-60,0 z" fill="green"/>
<path d="M2651,644 l89.5,844.5" stroke="black" stroke-width="5"/>
<path d="M4028,9059 l60,0 l0,60 l-60,0 z" fill="green"/>
<path d="M4058,9089 l262,-213" stroke="black" stroke-width="5"/>
<path d="M1355,9077 l60,0 l0,60 l-60,0 z" fill="green"/>
<path d="M1385,9107 l1079,37" stroke="black" stroke-width="5"/>
<path d="M39,66 l60,0 l0,60 l-60,0 z" fill="green"/>
<path d="M69,96 l-29,80.5" stroke="black" stroke-width="5"/>
<path d="M1925,5715 l60,0 l0,60 l-60,0 z" fill="green"/>
<path d="M1955,5745 l11.5,-239.5" stroke="black" stroke-width="5"/>
<path d="M7983,9059 l60,0 l0,60 l-60,0 z" fill="green"/>
<path d="M8013,9089 l-38,11.5" stroke="black" stroke-width="5"/>
<path d="M3953,3212 l60,0 l0,60 l-60,0 z" fill="green"/>
<path d="M3983,3242 l-14,-310.5" stroke="black" stroke-width="5"/>
<path d="M1773,4089 l60,0 l0,60 l-60,0 z" fill="green"/>
<path d="M1803,4119 l442,109" stroke="black" stroke-width="5"/>
<path d="M3255,9367 l60,0 l0,60 l-60,0 z" fill="green"/>
<path d="M3285,9397 l-342.5,254.5" stroke="black" stroke-width="5"/>
<path d="M3911,6178 l60,0 l0,60 l-60,0 z" fill="green"/>
<path d="M3941,6208 l-289.5,-181.5" stroke="black" stroke-width="5"/>
<path d="M8628,3520 l60,0 l0,60 l-60,0 z" fill="green"/>
<path d="M8658,3550 l144.5,-153.5" stroke="black" stroke-width="5"/>
<path d="M7590,4669 l60,0 l0,60 l-60,0 z" fill="green"/>
<path d="M7620,4699 l-672,-773" stroke="black" stroke-width="5"/>
<path d="M4532,3789 l60,0 l0,60 l-60,0 z" fill="green"/>
<path d="M4562,3819 l-4.5,-94" stroke="black" stroke-width="5"/>
<path d="M4892,3497 l60,0 l0,60 l-60,0 z" fill="green"/>
<path d="M4922,3527 l54.5,-1519" stroke="black" stroke-width="5"/>
<path d="M3892,7282 l60,0 l0,60 l-60,0 z" fill="green"/>
<path d="M3922,7312 l-1212,-204" stroke="black" stroke-width="5"/>
<path d="M2757,7559 l60,0 l0,60 l-60,0 z" fill="green"/>
<path d="M2787,7589 l-993,-80" stroke="black" stroke-width="5"/>
<path d="M4851,3768 l60,0 l0,60 l-60,0 z" fill="green"/>
<path d="M4881,3798 l-113,203.5" stroke="black" stroke-width="5"/>
<path d="M2816,4903 l60,0 l0,60 l-60,0 z" fill="green"/>
<path d="M2846,4933 l44,449" stroke="black" stroke-width="5"/>
<path d="M7409,6157 l60,0 l0,60 l-60,0 z" fill="green"/>
<path d="M7439,6187 l652.5,16" stroke="black" stroke-width="5"/>
<path d="M9520,9099 l60,0 l0,60 l-60,0 z" fill="green"/>
<path d="M9550,9129 l-101.5,-334.5" stroke="black" stroke-width="5"/>
<path d="M5353,4276 l60,0 l0,60 l-60,0 z" fill="green"/>
<path d="M5383,4306 l58,-703" stroke="black" stroke-width="5"/>
<path d="M5381,7433 l60,0 l0,60 l-60,0 z" fill="green"/>
<path d="M5411,7463 l-94.5,523.5" stroke="black" stroke-width="5"/>
<path d="M6864,7557 l60,0 l0,60 l-60,0 z" fill="green"/>
<path d="M6894,7587 l13,1206.5" stroke="black" stroke-width="5"/>
<path d="M9230,6495 l60,0 l0,60 l-60,0 z" fill="green"/>
<path d="M9260,6525 l-883,51.5" stroke="black" stroke-width="5"/>
<path d="M7623,1610 l60,0 l0,60 l-60,0 z" fill="green"/>
<path d="M7653,1640 l0,-187.5" stroke="black" stroke-width="5"/>
<path d="M849,1589 l60,0 l0,60 l-60,0 z" fill="green"/>
<path d="M879,1619 l-0.5,-155.5" stroke="black" stroke-width="5"/>
<path d="M5630,9398 l60,0 l0,60 l-60,0 z" fill="green"/>
<path d="M5660,9428 l-704,-4.5" stroke="black" stroke-width="5"/>
<path d="M8851,7170 l60,0 l0,60 l-60,0 z" fill="green"/>
<path d="M8881,7200 l-504,-153" stroke="black" stroke-width="5"/>
<path d="M9830,3673 l60,0 l0,60 l-60,0 z" fill="green"/>
<path d="M9860,3703 l-183,-236.5" stroke="black" stroke-width="5"/>
<path d="M260,4931 l60,0 l0,60 l-60,0 z" fill="green"/>
<path d="M290,4961 l169,-400" stroke="black" stroke-width="5"/>
<path d="M9835,4469 l60,0 l0,60 l-60,0 z" fill="green"/>
<path d="M9865,4499 l-733,-385.5" stroke="black" stroke-width="5"/>
<path d="M7473,630 l60,0 l0,60 l-60,0 z" fill="green"/>
<path d="M7503,660 l-228.5,504" stroke="black" stroke-width="5"/>
<path d="M7804,276 l60,0 l0,60 l-60,0 z" fill="green"/>
<path d="M7834,306 l220,756.5" stroke="black" stroke-width="5"/>
<path d="M1792,8986 l60,0 l0,60 l-60,0 z" fill="green"/>
<path d="M1822,9016 l86,-191.5" stroke="black" stroke-width="5"/>
<path d="M1450,758 l60,0 l0,60 l-60,0 z" fill="green"/>
<path d="M1480,788 l-117,343" stroke="black" stroke-width="5"/>
<path d="M7610,7693 l60,0 l0,60 l-60,0 z" fill="green"/>
<path d="M7640,7723 l541.5,-6.5" stroke="black" stroke-width="5"/>
<path d="M3184,2716 l60,0 l0,60 l-60,0 z" fill="green"/>
<path d="M3214,2746 l-4,-17.5" stroke="black" stroke-width="5"/>
<path d="M7985,8708 l60,0 l0,60 l-60,0 z" fill="green"/>
<path d="M8015,8738 l-361.5,57.5" stroke="black" stroke-width="5"/>
<path d="M8190,7416 l60,0 l0,60 l-60,0 z" fill="green"/>
<path d="M8220,7446 l-465.5,-23.5" stroke="black" stroke-width="5"/>
<path d="M9550,366 l60,0 l0,60 l-60,0 z" fill="green"/>
<path d="M9580,396 l-526,-93" stroke="black" stroke-width="5"/>
<path d="M4504,5101 l60,0 l0,60 l-60,0 z" fill="green"/>
<path d="M4534,5131 l-635,-35.5" stroke="black" stroke-width="5"/>
<path d="M1164,1551 l60,0 l0,60 l-60,0 z" fill="green"/>
<path d="M1194,1581 l-71,-102.5" stroke="black" stroke-width="5"/>
<path d="M1448,2604 l60,0 l0,60 l-60,0 z" fill="green"/>
<path d="M1478,2634 l702,48.5" stroke="black" stroke-width="5"/>
<path d="M5691,3617 l60,0 l0,60 l-60,0 z" fill="green"/>
<path d="M5721,3647 l170,-210" stroke="black" stroke-width="5"/>
<path d="M4954,6239 l60,0 l0,60 l-60,0 z" fill="green"/>
<path d="M4984,6269 l117.5,154" stroke="black" stroke-width="5"/>
<path d="M4283,3792 l60,0 l0,60 l-60,0 z" fill="green"/>
<path d="M4313,3822 l-214.5,191" stroke="black" stroke-width="5"/>
<path d="M8643,7644 l60,0 l0,60 l-60,0 z" fill="green"/>
<path d="M8673,7674 l-146.5,-31" stroke="black" stroke-width="5"/>
<path d="M4711,6871 l60,0 l0,60 l-60,0 z" fill="green"/>
<path d="M4741,6901 l56,663.5" stroke="black" stroke-width="5"/>
<path d="M1216,8542 l60,0 l0,60 l-60,0 z" fill="green"/>
<path d="M1246,8572 l-8,240" stroke="black" stroke-width="5"/>
<path d="M1359,9224 l60,0 l0,60 l-60,0 z" fill="green"/>
<path d="M1389,9254 l1075,39" stroke="black" stroke-width="5"/>
<path d="M188,4660 l60,0 l0,60 l-60,0 z" fill="green"/>
<path d="M218,4690 l-88.5,24.5" stroke="black" stroke-width="5"/>
<path d="M2016,7341 l60,0 l0,60 l-60,0 z" fill="green"/>
<path d="M2046,7371 l320.5,2.5" stroke="black" stroke-width="5"/>
<path d="M4470,5837 l60,0 l0,60 l-60,0 z" fill="green"/>
<path d="M4500,5867 l1736.5,7" stroke="black" stroke-width="5"/>
<path d="M9897,2598 l60,0 l0,60 l-60,0 z" fill="green"/>
<path d="M9927,2628 l-411,-281.5" stroke="black" stroke-width="5"/>
<path d="M2776,7607 l60,0 l0,60 l-60,0 z" fill="green"/>
<path d="M2806,7637 l-705,340" stroke="black" stroke-width="5"/>
<path d="M5554,4535 l60,0 l0,60 l-60,0 z" fill="green"/>
<path d="M5584,4565 l307,-328.5" stroke="black" stroke-width="5"/>
<path d="M723,7043 l60,0 l0,60 l-60,0 z" fill="green"/>
<path d="M753,7073 l-376,138.5" stroke="black" stroke-width="5"/>
<path d="M3504,9963 l60,0 l0,60 l-60,0 z" fill="green"/>
<path d="M3534,9993 l115,-15" stroke="black" stroke-width="5"/>
<path d="M6938,756 l60,0 l0,60 l-60,0 z" fill="green"/>
<path d="M6968,786 l-11.5,343" stroke="black" stroke-width="5"/>
<path d="M663,6751 l60,0 l0,60 l-60,0 z" fill="green"/>
<path d="M693,6781 l-216.5,-763.5" stroke="black" stroke-width="5"/>
<path d="M170,1357 l60,0 l0,60 l-60,0 z" fill="green"/>
<path d="M200,1387 l104,161.5" stroke="black" stroke-width="5"/>
<path d="M6088,6155 l60,0 l0,60 l-60,0 z" fill="green"/>
<path d="M6118,6185 l-35,326.5" stroke="black" stroke-width="5"/>
<path d="M1718,4117 l60,0 l0,60 l-60,0 z" fill="green"/>
<path d="M1748,4147 l-398.5,373.5" stroke="black" stroke-width="5"/>
<path d="M1185,1843 l60,0 l0,60 l-60,0 z" fill="green"/>
<path d="M1215,1873 l-270.5,185.5" stroke="black" stroke-width="5"/>
<path d="M8004,2736 l60,0 l0,60 l-60,0 z" fill="green"/>
<path d="M8034,2766 l-462.5,-215.5" stroke="black" stroke-width="5"/>
<path d="M8509,1964 l60,0 l0,60 l-60,0 z" fill="green"/>
<path d="M8539,1994 l-15,140" stroke="black" stroke-width="5"/>
<path d="M4969,6178 l60,0 l0,60 l-60,0 z" fill="green"/>
<path d="M4999,6208 l102.5,-124" stroke="black" stroke-width="5"/>
<path d="M6735,162 l60,0 l0,60 l-60,0 z" fill="green"/>
<path d="M6765,192 l-196,1197" stroke="black" stroke-width="5"/>
<path d="M8400,9097 l60,0 l0,60 l-60,0 z" fill="green"/>
<path d="M8430,9127 l28,110.5" stroke="black" stroke-width="5"/>
<path d="M7113,-30 l60,0 l0,60 l-60,0 z" fill="green"/>
<path d="M7143,0 l246,330" stroke="black" stroke-width="5"/>
<path d="M8304,4374 l60,0 l0,60 l-60,0 z" fill="green"/>
<path d="M8334,4404 l-277.5,-488" stroke="black" stroke-width="5"/>
<path d="M2054,4605 l60,0 l0,60 l-60,0 z" fill="green"/>
<path d="M2084,4635 l-22.5,-48.5" stroke="black" stroke-width="5"/>
<path d="M8730,684 l60,0 l0,60 l-60,0 z" fill="green"/>
<path d="M8760,714 l304,95.5" stroke="black" stroke-width="5"/>
<path d="M4368,3056 l60,0 l0,60 l-60,0 z" fill="green"/>
<path d="M4398,3086 l-90,-675.5" stroke="black" stroke-width="5"/>
<path d="M7091,5264 l60,0 l0,60 l-60,0 z" fill="green"/>
<path d="M7121,5294 l-398.5,16" stroke="black" stroke-width="5"/>
<path d="M1459,3882 l60,0 l0,60 l-60,0 z" fill="green"/>
<path d="M1489,3912 l21.5,-161" stroke="black" stroke-width="5"/>
<path d="M2449,1353 l60,0 l0,60 l-60,0 z" fill="green"/>
<path d="M2479,1383 l-260.5,-59.5" stroke="black" stroke-width="5"/>
<path d="M7604,5526 l60,0 l0,60 l-60,0 z" fill="green"/>
<path d="M7634,5556 l59,13" stroke="black" stroke-width="5"/>
<path d="M2919,6019 l60,0 l0,60 l-60,0 z" fill="green"/>
<path d="M2949,6049 l-112.5,264" stroke="black" stroke-width="5"/>
<path d="M9673,7815 l60,0 l0,60 l-60,0 z" fill="green"/>
<path d="M9703,7845 l110,949.5" stroke="black" stroke-width="5"/>
<path d="M583,1032 l60,0 l0,60 l-60,0 z" fill="green"/>
<path d="M613,1062 l3.5,202.5" stroke="black" stroke-width="5"/>
<path d="M810,4532 l60,0 l0,60 l-60,0 z" fill="green"/>
<path d="M840,4562 l0.5,-196.5" stroke="black" stroke-width="5"/>
<path d="M4485,9433 l60,0 l0,60 l-60,0 z" fill="green"/>
<path d="M4515,9463 l671.5,205.5" stroke="black" stroke-width="5"/>
<path d="M3639,8025 l60,0 l0,60 l-60,0 z" fill="green"/>
<path d="M3669,8055 l-224,47.5" stroke="black" stroke-width="5"/>
<path d="M2145,6530 l60,0 l0,60 l-60,0 z" fill="green"/>
<path d="M2175,6560 l-541,-315" stroke="black" stroke-width="5"/>
<path d="M6328,8036 l60,0 l0,60 l-60,0 z" fill="green"/>
<path d="M6358,8066 l-222,-63" stroke="black" stroke-width="5"/>
<path d="M3438,3957 l60,0 l0,60 l-60,0 z" fill="green"/>
<path d="M3468,3987 l-240.5,-128.5" stroke="black" stroke-width="5"/>
<path d="M4922,8320 l60,0 l0,60 l-60,0 z" fill="green"/>
<path d="M4952,8350 l-0.5,-61" stroke="black" stroke-width="5"/>
<path d="M4731,1514 l60,0 l0,60 l-60,0 z" fill="green"/>
<path d="M4761,1544 l-844.5,-349.5" stroke="black" stroke-width="5"/>
<path d="M7411,2828 l60,0 l0,60 l-60,0 z" fill="green"/>
<path d="M7441,2858 l-190,43" stroke="black" stroke-width="5"/>
<path d="M7362,5404 l60,0 l0,60 l-60,0 z" fill="green"/>
<path d="M7392,5434 l-669.5,76" stroke="black" stroke-width="5"/>
<path d="M8919,3053 l60,0 l0,60 l-60,0 z" fill="green"/>
<path d="M8949,3083 l71,-117" stroke="black" stroke-width="5"/>
<path d="M6576,7833 l60,0 l0,60 l-60,0 z" fill="green"/>
<path d="M6606,7863 l-67.5,1068.5" stroke="black" stroke-width="5"/>
<path d="M2620,139 l60,0 l0,60 l-60,0 z" fill="green"/>
<path d="M2650,169 l151,83" stroke="black" stroke-width="5"/>
<path d="M3805,6611 l60,0 l0,60 l-60,0 z" fill="green"/>
<path d="M3835,6641 l-67,72.5" stroke="black" stroke-width="5"/>
<path d="M9106,7380 l60,0 l0,60 l-60,0 z" fill="green"/>
<path d="M9136,7410 l-91.5,88.5" stroke="black" stroke-width="5"/>
<path d="M3688,4515 l60,0 l0,60 l-60,0 z" fill="green"/>
<path d="M3718,4545 l6.5,-985.5" stroke="black" stroke-width="5"/>
<path d="M8721,6286 l60,0 l0,60 l-60,0 z" fill="green"/>
<path d="M8751,6316 l7,-15" stroke="black" stroke-width="5"/>
<path d="M3058,7571 l60,0 l0,60 l-60,0 z" fill="green"/>
<path d="M3088,7601 l666,-79" stroke="black" stroke-width="5"/>
<path d="M2602,4921 l60,0 l0,60 l-60,0 z" fill="green"/>
<path d="M2632,4951 l-296.5,-44.5" stroke="black" stroke-width="5"/>
<path d="M7633,7601 l60,0 l0,60 l-60,0 z" fill="green"/>
<path d="M7663,7631 l222,0.5" stroke="black" stroke-width="5"/>
<path d="M3245,4654 l60,0 l0,60 l-60,0 z" fill="green"/>
<path d="M3275,4684 l136,14.5" stroke="black" stroke-width="5"/>
<path d="M4848,8248 l60,0 l0,60 l-60,0 z" fill="green"/>
<path d="M4878,8278 l-652,133" stroke="black" stroke-width="5"/>
<path d="M8179,9409 l60,0 l0,60 l-60,0 z" fill="green"/>
<path d="M8209,9439 l-186,184.5" stroke="black" stroke-width="5"/>
<path d="M6624,7311 l60,0 l0,60 l-60,0 z" fill="green"/>
<path d="M6654,7341 l-479.5,219.5" stroke="black" stroke-width="5"/>
<path d="M4088,697 l60,0 l0,60 l-60,0 z" fill="green"/>
<path d="M4118,727 l-200.5,-321.5" stroke="black" stroke-width="5"/>
<path d="M8816,8743 l60,0 l0,60 l-60,0 z" fill="green"/>
<path d="M8846,8773 l142.5,464.5" stroke="black" stroke-width="5"/>
<path d="M4913,4529 l60,0 l0,60 l-60,0 z" fill="green"/>
<path d="M4943,4559 l165.5,-97.5" stroke="black" stroke-width="5"/>
<path d="M7222,7890 l60,0 l0,60 l-60,0 z" fill="green"/>
<path d="M7252,7920 l116,127.5" stroke="black" stroke-width="5"/>
<path d="M9914,4344 l60,0 l0,60 l-60,0 z" fill="green"/>
<path d="M9944,4374 l21,-2124" stroke="black" stroke-width="5"/>
<path d="M5522,484 l60,0 l0,60 l-60,0 z" fill="green"/>
<path d="M5552,514 l26.5,892" stroke="black" stroke-width="5"/>
<path d="M5695,5660 l60,0 l0,60 l-60,0 z" fill="green"/>
<path d="M5725,5690 l614.5,48.5" stroke="black" stroke-width="5"/>
<path d="M1712,9505 l60,0 l0,60 l-60,0 z" fill="green"/>
<path d="M1742,9535 l-574.5,125" stroke="black" stroke-width="5"/>
<path d="M922,99 l60,0 l0,60 l-60,0 z" fill="green"/>
<path d="M952,129 l413,43" stroke="black" stroke-width="5"/>
<path d="M9690,972 l60,0 l0,60 l-60,0 z" fill="green"/>
<path d="M9720,1002 l-544.5,346.5" stroke="black" stroke-width="5"/>
<path d="M8167,2464 l60,0 l0,60 l-60,0 z" fill="green"/>
<path d="M8197,2494 l339,-74" stroke="black" stroke-width="5"/>
<path d="M6795,4970 l60,0 l0,60 l-60,0 z" fill="green"/>
<path d="M6825,5000 l-109,-85" stroke="black" stroke-width="5"/>
<path d="M5320,2404 l60,0 l0,60 l-60,0 z" fill="green"/>
<path d="M5350,2434 l4.5,277" stroke="black" stroke-width="5"/>
<path d="M8593,5909 l60,0 l0,60 l-60,0 z" fill="green"/>
<path d="M8623,5939 l-821.5,-13" stroke="black" stroke-width="5"/>
<path d="M7504,5247 l60,0 l0,60 l-60,0 z" fill="green"/>
<path d="M7534,5277 l-674,-131" stroke="black" stroke-width="5"/>
<path d="M9308,6000 l60,0 l0,60 l-60,0 z" fill="green"/>
<path d="M9338,6030 l-928,-37" stroke="black" stroke-width="5"/>
<path d="M5780,2280 l60,0 l0,60 l-60,0 z" fill="green"/>
<path d="M5810,2310 l189,-615.5" stroke="black" stroke-width="5"/>
<path d="M1101,8694 l60,0 l0,60 l-60,0 z" fill="green"/>
<path d="M1131,8724 l-530.5,-212.5" stroke="black" stroke-width="5"/>
<path d="M3699,1691 l60,0 l0,60 l-60,0 z" fill="green"/>
<path d="M3729,1721 l75,71.5" stroke="black" stroke-width="5"/>
<path d="M1268,5597 l60,0 l0,60 l-60,0 z" fill="green"/>
<path d="M1298,5627 l-207,-125.5" stroke="black" stroke-width="5"/>
<text font-size="115.0870675296872" text-anchor="middle" x="250.5" y="7730.78047363539">
0
</text>
<text font-size="115.0870675296872" text-anchor="middle" x="1634" y="6837.28047363539">
1
</text>
<text font-size="115.0870675296872" text-anchor="middle" x="8810.5" y="4769.78047363539">
2
</text>
<text font-size="115.0870675296872" text-anchor="middle" x="1663" y="1718.2804736353905">
3
</text>
<text font-size="115.0870675296872" text-anchor="middle" x="2683.5" y="3018.7804736353905">
4
</text>
<text font-size="115.0870675296872" text-anchor="middle" x="9669.5" y="6753.78047363539">
5
</text>
<text font-size="115.0870675296872" text-anchor="middle" x="2289" y="8405.78047363539">
6
</text>
<text font-size="115.0870675296872" text-anchor="middle" x="2220" y="3975.2804736353905">
7
</text>
<text font-size="115.0870675296872" text-anchor="middle" x="2173" y="2061.7804736353905">
8
</text>
<text font-size="115.0870675296872" text-anchor="middle" x="5504.5" y="6916.28047363539">
9
</text>
<text font-size="115.0870675296872" text-anchor="middle" x="4194" y="4484.78047363539">
10
</text>
<text font-size="115.0870675296872" text-anchor="middle" x="1265.5" y="605.7804736353905">
11
</text>
<text font-size="115.0870675296872" text-anchor="middle" x="2593" y="2893.7804736353905">
12
</text>
<text font-size="115.0870675296872" text-anchor="middle" x="6767" y="6645.28047363539">
13
</text>
<text font-size="115.0870675296872" text-anchor="middle" x="4940" y="5732.78047363539">
14
</text>
<text font-size="115.0870675296872" text-anchor="middle" x="869" y="2852.7804736353905">
15
</text>
<text font-size="115.0870675296872" text-anchor="middle" x="4757" y="2379.7804736353905">
16
</text>
<text font-size="115.0870675296872" text-anchor="middle" x="5202" y="2304.7804736353905">
17
</text>
<text font-size="115.0870675296872" text-anchor="middle" x="8954.5" y="5438.78047363539">
18
</text>
<text font-size="115.0870675296872" text-anchor="middle" x="5667" y="9142.78047363539">
19
</text>
<text font-size="115.0870675296872" text-anchor="middle" x="4098.5" y="3572.7804736353905">
20
</text>
<text font-size="115.0870675296872" text-anchor="middle" x="1488.5" y="3484.2804736353905">
21
</text>
<text font-size="115.0870675296872" text-anchor="middle" x="5632" y="296.78047363539054">
22
</text>
<text font-size="115.0870675296872" text-anchor="middle" x="8455.5" y="8147.28047363539">
23
</text>
<text font-size="115.0870675296872" text-anchor="middle" x="5231" y="5261.78047363539">
24
</text>
<text font-size="115.0870675296872" text-anchor="middle" x="1874.5" y="4929.78047363539">
25
</text>
<text font-size="115.0870675296872" text-anchor="middle" x="2740.5" y="1528.7804736353905">
26
</text>
<text font-size="115.0870675296872" text-anchor="middle" x="4320" y="8916.28047363539">
27
</text>
<text font-size="115.0870675296872" text-anchor="middle" x="2464" y="9184.28047363539">
28
</text>
<text font-size="115.0870675296872" text-anchor="middle" x="40" y="216.78047363539054">
29
</text>
<text font-size="115.0870675296872" text-anchor="middle" x="1966.5" y="5545.78047363539">
30
</text>
<text font-size="115.0870675296872" text-anchor="middle" x="7975" y="9140.78047363539">
31
</text>
<text font-size="115.0870675296872" text-anchor="middle" x="3969" y="2971.7804736353905">
32
</text>
<text font-size="115.0870675296872" text-anchor="middle" x="2245" y="4268.28047363539">
33
</text>
<text font-size="115.0870675296872" text-anchor="middle" x="2942.5" y="9691.78047363539">
34
</text>
<text font-size="115.0870675296872" text-anchor="middle" x="3651.5" y="6066.78047363539">
35
</text>
<text font-size="115.0870675296872" text-anchor="middle" x="8802.5" y="3436.7804736353905">
36
</text>
<text font-size="115.0870675296872" text-anchor="middle" x="6948" y="3966.2804736353905">
37
</text>
<text font-size="115.0870675296872" text-anchor="middle" x="4557.5" y="3765.2804736353905">
38
</text>
<text font-size="115.0870675296872" text-anchor="middle" x="4976.5" y="2048.2804736353905">
39
</text>
<text font-size="115.0870675296872" text-anchor="middle" x="2710" y="7148.28047363539">
40
</text>
<text font-size="115.0870675296872" text-anchor="middle" x="1794" y="7549.28047363539">
41
</text>
<text font-size="115.0870675296872" text-anchor="middle" x="4768" y="4041.7804736353905">
42
</text>
<text font-size="115.0870675296872" text-anchor="middle" x="2890" y="5422.28047363539">
43
</text>
<text font-size="115.0870675296872" text-anchor="middle" x="8091.5" y="6243.28047363539">
44
</text>
<text font-size="115.0870675296872" text-anchor="middle" x="9448.5" y="8834.78047363539">
45
</text>
<text font-size="115.0870675296872" text-anchor="middle" x="5441" y="3643.2804736353905">
46
</text>
<text font-size="115.0870675296872" text-anchor="middle" x="5316.5" y="8026.78047363539">
47
</text>
<text font-size="115.0870675296872" text-anchor="middle" x="6907" y="8833.78047363539">
48
</text>
<text font-size="115.0870675296872" text-anchor="middle" x="8377" y="6616.78047363539">
49
</text>
<text font-size="115.0870675296872" text-anchor="middle" x="7653" y="1492.7804736353905">
50
</text>
<text font-size="115.0870675296872" text-anchor="middle" x="878.5" y="1503.7804736353905">
51
</text>
<text font-size="115.0870675296872" text-anchor="middle" x="4956" y="9463.78047363539">
52
</text>
<text font-size="115.0870675296872" text-anchor="middle" x="8377" y="7087.28047363539">
53
</text>
<text font-size="115.0870675296872" text-anchor="middle" x="9677" y="3506.7804736353905">
54
</text>
<text font-size="115.0870675296872" text-anchor="middle" x="459" y="4601.28047363539">
55
</text>
<text font-size="115.0870675296872" text-anchor="middle" x="9132" y="4153.78047363539">
56
</text>
<text font-size="115.0870675296872" text-anchor="middle" x="7274.5" y="1204.2804736353905">
57
</text>
<text font-size="115.0870675296872" text-anchor="middle" x="8054" y="1102.7804736353905">
58
</text>
<text font-size="115.0870675296872" text-anchor="middle" x="1908" y="8864.78047363539">
59
</text>
<text font-size="115.0870675296872" text-anchor="middle" x="1363" y="1171.2804736353905">
60
</text>
<text font-size="115.0870675296872" text-anchor="middle" x="8181.5" y="7756.78047363539">
61
</text>
<text font-size="115.0870675296872" text-anchor="middle" x="3210" y="2768.7804736353905">
62
</text>
<text font-size="115.0870675296872" text-anchor="middle" x="7653.5" y="8835.78047363539">
63
</text>
<text font-size="115.0870675296872" text-anchor="middle" x="7754.5" y="7462.78047363539">
64
</text>
<text font-size="115.0870675296872" text-anchor="middle" x="9054" y="343.28047363539054">
65
</text>
<text font-size="115.0870675296872" text-anchor="middle" x="3899" y="5135.78047363539">
66
</text>
<text font-size="115.0870675296872" text-anchor="middle" x="1123" y="1518.7804736353905">
67
</text>
<text font-size="115.0870675296872" text-anchor="middle" x="2180" y="2722.7804736353905">
68
</text>
<text font-size="115.0870675296872" text-anchor="middle" x="5891" y="3477.2804736353905">
69
</text>
<text font-size="115.0870675296872" text-anchor="middle" x="5101.5" y="6463.28047363539">
70
</text>
<text font-size="115.0870675296872" text-anchor="middle" x="4098.5" y="4053.2804736353905">
71
</text>
<text font-size="115.0870675296872" text-anchor="middle" x="8526.5" y="7683.28047363539">
72
</text>
<text font-size="115.0870675296872" text-anchor="middle" x="4797" y="7604.78047363539">
73
</text>
<text font-size="115.0870675296872" text-anchor="middle" x="1238" y="8852.28047363539">
74
</text>
<text font-size="115.0870675296872" text-anchor="middle" x="2464" y="9333.28047363539">
75
</text>
<text font-size="115.0870675296872" text-anchor="middle" x="129.5" y="4754.78047363539">
76
</text>
<text font-size="115.0870675296872" text-anchor="middle" x="2366.5" y="7413.78047363539">
77
</text>
<text font-size="115.0870675296872" text-anchor="middle" x="6236.5" y="5914.28047363539">
78
</text>
<text font-size="115.0870675296872" text-anchor="middle" x="9516" y="2386.7804736353905">
79
</text>
<text font-size="115.0870675296872" text-anchor="middle" x="2101" y="8017.28047363539">
80
</text>
<text font-size="115.0870675296872" text-anchor="middle" x="5891" y="4276.78047363539">
81
</text>
<text font-size="115.0870675296872" text-anchor="middle" x="377" y="7251.78047363539">
82
</text>
<text font-size="115.0870675296872" text-anchor="middle" x="3649" y="10018.28047363539">
83
</text>
<text font-size="115.0870675296872" text-anchor="middle" x="6956.5" y="1169.2804736353905">
84
</text>
<text font-size="115.0870675296872" text-anchor="middle" x="476.5" y="6057.78047363539">
85
</text>
<text font-size="115.0870675296872" text-anchor="middle" x="304" y="1588.7804736353905">
86
</text>
<text font-size="115.0870675296872" text-anchor="middle" x="6083" y="6551.78047363539">
87
</text>
<text font-size="115.0870675296872" text-anchor="middle" x="1349.5" y="4560.78047363539">
88
</text>
<text font-size="115.0870675296872" text-anchor="middle" x="944.5" y="2098.7804736353905">
89
</text>
<text font-size="115.0870675296872" text-anchor="middle" x="7571.5" y="2590.7804736353905">
90
</text>
<text font-size="115.0870675296872" text-anchor="middle" x="8524" y="2174.2804736353905">
91
</text>
<text font-size="115.0870675296872" text-anchor="middle" x="5101.5" y="6124.28047363539">
92
</text>
<text font-size="115.0870675296872" text-anchor="middle" x="6569" y="1429.2804736353905">
93
</text>
<text font-size="115.0870675296872" text-anchor="middle" x="8458" y="9277.78047363539">
94
</text>
<text font-size="115.0870675296872" text-anchor="middle" x="7389" y="370.28047363539054">
95
</text>
<text font-size="115.0870675296872" text-anchor="middle" x="8056.5" y="3956.2804736353905">
96
</text>
<text font-size="115.0870675296872" text-anchor="middle" x="2061.5" y="4626.78047363539">
97
</text>
<text font-size="115.0870675296872" text-anchor="middle" x="9064" y="849.7804736353905">
98
</text>
<text font-size="115.0870675296872" text-anchor="middle" x="4308" y="2450.7804736353905">
99
</text>
<text font-size="115.0870675296872" text-anchor="middle" x="6722.5" y="5350.28047363539">
100
</text>
<text font-size="115.0870675296872" text-anchor="middle" x="1510.5" y="3791.2804736353905">
101
</text>
<text font-size="115.0870675296872" text-anchor="middle" x="2218.5" y="1363.7804736353905">
102
</text>
<text font-size="115.0870675296872" text-anchor="middle" x="7693" y="5609.28047363539">
103
</text>
<text font-size="115.0870675296872" text-anchor="middle" x="2836.5" y="6353.28047363539">
104
</text>
<text font-size="115.0870675296872" text-anchor="middle" x="9813" y="8834.78047363539">
105
</text>
<text font-size="115.0870675296872" text-anchor="middle" x="616.5" y="1304.7804736353905">
106
</text>
<text font-size="115.0870675296872" text-anchor="middle" x="840.5" y="4405.78047363539">
107
</text>
<text font-size="115.0870675296872" text-anchor="middle" x="5186.5" y="9708.78047363539">
108
</text>
<text font-size="115.0870675296872" text-anchor="middle" x="3445" y="8142.78047363539">
109
</text>
<text font-size="115.0870675296872" text-anchor="middle" x="1634" y="6285.28047363539">
110
</text>
<text font-size="115.0870675296872" text-anchor="middle" x="6136" y="8043.28047363539">
111
</text>
<text font-size="115.0870675296872" text-anchor="middle" x="3227.5" y="3898.7804736353905">
112
</text>
<text font-size="115.0870675296872" text-anchor="middle" x="4951.5" y="8329.28047363539">
113
</text>
<text font-size="115.0870675296872" text-anchor="middle" x="3916.5" y="1234.7804736353905">
114
</text>
<text font-size="115.0870675296872" text-anchor="middle" x="7251" y="2941.2804736353905">
115
</text>
<text font-size="115.0870675296872" text-anchor="middle" x="6722.5" y="5550.28047363539">
116
</text>
<text font-size="115.0870675296872" text-anchor="middle" x="9020" y="3006.2804736353905">
117
</text>
<text font-size="115.0870675296872" text-anchor="middle" x="6538.5" y="8971.78047363539">
118
</text>
<text font-size="115.0870675296872" text-anchor="middle" x="2801" y="292.28047363539054">
119
</text>
<text font-size="115.0870675296872" text-anchor="middle" x="3768" y="6753.78047363539">
120
</text>
<text font-size="115.0870675296872" text-anchor="middle" x="9044.5" y="7538.78047363539">
121
</text>
<text font-size="115.0870675296872" text-anchor="middle" x="3724.5" y="3599.7804736353905">
122
</text>
<text font-size="115.0870675296872" text-anchor="middle" x="8758" y="6341.28047363539">
123
</text>
<text font-size="115.0870675296872" text-anchor="middle" x="3754" y="7562.28047363539">
124
</text>
<text font-size="115.0870675296872" text-anchor="middle" x="2335.5" y="4946.78047363539">
125
</text>
<text font-size="115.0870675296872" text-anchor="middle" x="7885" y="7671.78047363539">
126
</text>
<text font-size="115.0870675296872" text-anchor="middle" x="3411" y="4738.78047363539">
127
</text>
<text font-size="115.0870675296872" text-anchor="middle" x="4226" y="8451.28047363539">
128
</text>
<text font-size="115.0870675296872" text-anchor="middle" x="8023" y="9663.78047363539">
129
</text>
<text font-size="115.0870675296872" text-anchor="middle" x="6174.5" y="7600.78047363539">
130
</text>
<text font-size="115.0870675296872" text-anchor="middle" x="3917.5" y="445.78047363539054">
131
</text>
<text font-size="115.0870675296872" text-anchor="middle" x="8988.5" y="9277.78047363539">
132
</text>
<text font-size="115.0870675296872" text-anchor="middle" x="5108.5" y="4501.78047363539">
133
</text>
<text font-size="115.0870675296872" text-anchor="middle" x="7368" y="8087.78047363539">
134
</text>
<text font-size="115.0870675296872" text-anchor="middle" x="9965" y="2290.2804736353905">
135
</text>
<text font-size="115.0870675296872" text-anchor="middle" x="5578.5" y="1446.2804736353905">
136
</text>
<text font-size="115.0870675296872" text-anchor="middle" x="6339.5" y="5778.78047363539">
137
</text>
<text font-size="115.0870675296872" text-anchor="middle" x="1167.5" y="9700.28047363539">
138
</text>
<text font-size="115.0870675296872" text-anchor="middle" x="1365" y="212.28047363539054">
139
</text>
<text font-size="115.0870675296872" text-anchor="middle" x="9175.5" y="1388.7804736353905">
140
</text>
<text font-size="115.0870675296872" text-anchor="middle" x="8536" y="2460.2804736353905">
141
</text>
<text font-size="115.0870675296872" text-anchor="middle" x="6716" y="4955.28047363539">
142
</text>
<text font-size="115.0870675296872" text-anchor="middle" x="5354.5" y="2751.2804736353905">
143
</text>
<text font-size="115.0870675296872" text-anchor="middle" x="7801.5" y="5966.28047363539">
144
</text>
<text font-size="115.0870675296872" text-anchor="middle" x="6860" y="5186.28047363539">
145
</text>
<text font-size="115.0870675296872" text-anchor="middle" x="8410" y="6033.28047363539">
146
</text>
<text font-size="115.0870675296872" text-anchor="middle" x="5999" y="1734.7804736353905">
147
</text>
<text font-size="115.0870675296872" text-anchor="middle" x="600.5" y="8551.78047363539">
148
</text>
<text font-size="115.0870675296872" text-anchor="middle" x="3804" y="1832.7804736353905">
149
</text>
<text font-size="115.0870675296872" text-anchor="middle" x="1091" y="5541.78047363539">
150
</text>
</svg>